<svg xmlns="http://www.w3.org/2000/svg" width="1900" height="1529" viewBox="0 0 1900 1529" version="1.1">
    <path d="" stroke="none" fill="#080404" fill-rule="evenodd"/>
    <path d="M 86.500 1.069 C 59.710 3.171, 40.181 11.006, 25.567 25.517 C 10.188 40.788, 3.051 59.487, 0.956 90 C 0.215 100.789, -0.012 309.128, 0.207 775.500 C 0.506 1411.489, 0.612 1445.978, 2.292 1454.916 C 10.272 1497.369, 33.003 1519.609, 76.120 1527.151 C 82.100 1528.197, 245.952 1528.500, 940 1528.752 C 1496.079 1528.953, 1801.261 1528.716, 1810.075 1528.076 C 1817.541 1527.533, 1827.216 1526.355, 1831.575 1525.457 C 1872.168 1517.092, 1896.028 1488.022, 1898.667 1443.713 C 1899.021 1437.781, 1899.690 1432.692, 1900.155 1432.404 C 1900.620 1432.117, 1901 1131.057, 1901 763.382 C 1901 392.802, 1900.618 95.118, 1900.144 95.411 C 1899.673 95.702, 1899.036 91.566, 1898.728 86.220 C 1897.266 60.799, 1889.045 40.232, 1874.483 25.567 C 1859.571 10.549, 1840.940 3.242, 1811.916 1.028 C 1795.862 -0.196, 102.122 -0.156, 86.500 1.069 M 0.497 764.500 C 0.497 1132.450, 0.611 1283.124, 0.750 1099.332 C 0.889 915.540, 0.889 614.490, 0.750 430.332 C 0.611 246.174, 0.497 396.550, 0.497 764.500 M 250 589.500 L 250 929 350 929 L 450 929 450 689.500 L 450 450 750 450 L 1050 450 1050 689.500 L 1050 929 1150 929 L 1250 929 1250 589.500 L 1250 250 750 250 L 250 250 250 589.500 M 650 939.500 L 650 1279 1150 1279 L 1650 1279 1650 939.500 L 1650 600 1550 600 L 1450 600 1450 839.500 L 1450 1079 1150 1079 L 850 1079 850 839.500 L 850 600 750 600 L 650 600 650 939.500" stroke="none" fill="#FFFFFF" fill-rule="evenodd"/>
</svg>
